<svg xmlns="http://www.w3.org/2000/svg" viewBox="-81 4431 12138 12138" fill="none">
  <path fill="#AF0608" d="M5762.01 7308.11c-244.11,0 -479.83,36.61 -701.68,104.59 -1.67,0.48 -3.6,1.18 -5.27,1.66 -633.46,195.75 -1154.43,647.58 -1441.63,1234.39l-2683.42 5044.26 2747.8 0 44.02 0c14.61,-0.45 32.33,-1.9 52.68,-4.78l0.69 0c371.68,-36.61 682.78,-280.23 816.07,-614.07 44.99,-112.73 69.91,-235.73 69.91,-364.48 0,-159.62 -38.08,-310.14 -105.56,-443.46 -0.73,-1.41 -1.43,-2.87 -2.15,-4.04 -22.73,-40.22 -47.14,-80.19 -72.5,-119.69 -0.49,-0.69 -0.97,-1.41 -1.47,-2.14 -130.4,-204.37 -252.78,-358.45 -303.79,-652.01 -115.74,-665.82 183.18,-1128.73 610.13,-1469.05 102.65,-81.85 312.08,-201.25 513.09,-263.48 1.45,0 2.63,0 5.26,-1.18 270.93,-85.45 701.71,-132.76 950.31,-135.94 207.53,-2.63 726.08,-14.86 726.08,-14.86 81.61,2.67 164.43,1.47 248.66,0l922.32 0 635.37 0c654.05,0 1314.33,-431.47 1619.7,-1058.95l637.99 -1236.77 -5282.61 0z"/>
  <path fill="#AF0608" d="M8819.49 10164.81c-14.61,-1.46 -29.42,-2.15 -44.51,-2.15l-1735.98 0c0,0 -1088.89,-63.89 -1435.65,649 -291,597.82 48.55,947.51 165.36,1052.59 90.95,81.85 253.62,176.82 472.73,186.13 492.51,20.9 1846.95,4.05 1846.95,4.05 38.53,0 76.56,-3.12 114.15,-9.1 246.24,-31.08 453,-188.07 554.24,-404.42l400.15 -753.39c14.37,-24.64 26.55,-49.76 36.62,-75.62 1.42,-3.35 2.87,-6.68 4.05,-10.03 19.87,-53.85 30.63,-109.37 32.57,-164.19l0 -0.25c0,-3.56 0.21,-7.16 0.21,-10.76 -1.43,-237.87 -180.19,-433.62 -410.89,-461.86z"/>
</svg>
