<?xml version="1.0"?>


<svg xmlns="http://www.w3.org/2000/svg" xml:space="preserve" width="297mm" height="210mm" version="1.1" style="shape-rendering:geometricPrecision; text-rendering:geometricPrecision; image-rendering:optimizeQuality; fill-rule:evenodd; clip-rule:evenodd" viewBox="0 0 29700 21000" xmlns:xlink="http://www.w3.org/1999/xlink" xmlns:xodm="http://www.corel.com/coreldraw/odm/2003">
 <defs>
  
 </defs>
 <g id="Camada_x0020_1">
  <metadata id="CorelCorpID_0Corel-Layer"></metadata>
  <path fill="#111111" d="M24031.04 10432.65c-99.09,-134.76 -252.34,-202.15 -414.86,-236.48 -84.55,-19.84 -171.77,-29.08 -253.69,-33.05 -515.27,-30.4 -1030.57,-22.47 -1547.19,-22.47 -63.4,0 -321.08,-5.3 -380.5,-22.46 -6.62,-1.32 -11.9,-3.95 -17.2,-6.61 -173.09,-59.46 -257.64,-245.73 -133.43,-400.33 2.63,-2.63 3.95,-5.3 6.59,-6.61 59.45,-63.41 198.2,-76.62 276.15,-83.24 284.07,-23.78 576.08,-19.83 860.15,-19.83 327.65,0 657.96,-2.63 986.96,-2.63l414.87 0c66.07,0 124.21,-31.7 159.9,-80.61 26.41,-34.32 42.25,-76.62 42.25,-121.54l0 -253.69c0,-104.35 -79.25,-190.25 -181.01,-199.49 -182.32,-2.63 -367.31,-2.63 -549.64,-2.63 -365.99,0 -730.63,1.31 -1095.32,1.31 -395.07,0 -1119.1,-7.92 -1474.51,137.4 -113.63,46.24 -216.69,114.94 -289.37,215.37 -121.55,167.79 -144.01,425.43 -144.01,626.27 0,200.84 23.78,462.42 150.62,628.92 113.63,147.97 309.2,219.33 521.91,252.34 29.04,5.3 58.15,9.25 88.5,11.91 206.14,23.77 418.85,17.17 582.69,17.17l857.49 0c138.72,0 470.38,-7.92 591.93,37 137.4,48.87 191.56,207.44 150.62,332.94 -10.55,31.74 -26.44,59.46 -47.55,84.59 -9.28,9.24 -18.52,18.48 -29.08,27.72 -7.93,6.62 -17.2,13.22 -27.75,18.52 -81.92,47.55 -322.39,60.77 -473.01,66.07 -35.68,0 -66.08,1.32 -87.19,1.32 -309.2,6.6 -619.68,7.92 -928.85,-1.32 -256.32,-9.28 -515.3,-2.67 -772.94,0 -97.77,1.32 -195.54,1.32 -293.32,0l-2.63 0c-5.29,0 -13.22,0 -18.51,2.63 -101.73,9.24 -181.01,95.14 -181.01,199.52l0 252.34c0,42.29 13.22,80.61 38.32,113.62 0,2.67 2.65,5.3 3.97,7.93 31.71,42.29 79.26,72.68 136.09,79.29 7.92,1.32 15.85,1.32 23.77,1.32l46.24 0c519.25,7.92 1039.82,2.62 1559.1,2.62 97.78,0 195.54,0 294.64,-1.31 25.08,0 48.86,0 73.99,-1.31 269.54,-2.63 541.71,-13.22 808.58,-42.3 79.3,-7.93 165.16,-19.8 249.75,-40.94 128.16,-30.39 252.34,-80.6 343.5,-165.16 27.75,-26.44 52.85,-55.51 73.99,-85.9 22.47,-31.7 42.29,-66.04 59.46,-101.72 9.24,-19.83 18.51,-39.62 26.44,-60.78 58.11,-154.59 72.65,-331.62 72.65,-487.53 0,-210.09 -26.41,-454.54 -153.25,-631.56 -1.32,-2.63 -2.66,-3.99 -5.3,-6.62z"></path>
  <path fill="#111111" d="M26341.68 9686.91l2211.31 0c111.48,0 202.72,-91.2 202.72,-202.68l0 -337.38c0,-111.54 -91.24,-202.73 -202.72,-202.73l-2489.68 0c-213.85,0 -438.92,1.83 -649.14,45.58 -719.6,150.03 -701.61,933.28 -701.61,1511.3 0,1228.4 197.07,1559.17 1474,1559.17l2366.43 0c111.48,0 202.72,-91.24 202.72,-202.75l0 -365.37c0,-111.51 -91.24,-202.71 -202.72,-202.71l-2227.31 0c-381.46,0 -592.75,-48.91 -643.7,-471.9l2871.01 0c111.48,0 202.72,-91.16 202.72,-202.68l0 -211.81c0,-111.44 -91.24,-202.75 -202.72,-202.75l-2877.72 0c35.54,-474.64 245.24,-513.29 666.41,-513.29z"></path>
  <path fill="#111111" d="M15380.57 8944.11l-2489.71 0c-213.86,0 -438.89,1.83 -649.1,45.58 -719.68,150.03 -701.61,933.28 -701.61,1511.31l0 1356.41c0,111.52 91.23,202.75 202.67,202.75l547.76 0c111.52,0 202.72,-91.23 202.72,-202.75l0 -837.24c0,-111.47 91.23,-202.7 202.71,-202.7l2684.56 0c111.48,0 202.71,-91.2 202.71,-202.72l0 -211.81c0,-111.44 -91.23,-202.74 -202.71,-202.74l-2877.79 0c35.72,-474.22 244.45,-513.3 666.48,-513.3l2211.31 0c111.48,0 202.71,-91.2 202.71,-202.68l0 -337.37c0,-111.54 -91.23,-202.74 -202.71,-202.74z"></path>
  <path fill="#111111" d="M17323.04 10671.52l389.8 -786.16c52.55,-98.32 214.07,-97.98 265.7,0.86l410.3 785.3 -1065.8 0zm1270.69 -1548.54c-52.43,-98.4 -186.54,-178.86 -298.06,-178.86l-873.23 0c-111.48,0 -246.87,79.84 -300.86,177.4l-1452.05 2761.23c-53.99,97.57 -6.96,177.42 104.52,177.42l650.9 0c111.51,0 245.66,-80.44 298.2,-178.83l293.84 -592.59 1694.35 0 309.16 591.72c51.67,98.85 185.1,179.7 296.58,179.7l639.44 0c111.48,0 159.76,-80.51 107.36,-178.94l-1470.15 -2758.25z"></path>
  <path fill="#AF0608" d="M5762.01 7308.11c-244.11,0 -479.83,36.61 -701.68,104.59 -1.67,0.48 -3.6,1.18 -5.27,1.66 -633.46,195.75 -1154.43,647.58 -1441.63,1234.39l-2683.42 5044.26 2747.8 0 44.02 0c14.61,-0.45 32.33,-1.9 52.68,-4.78l0.69 0c371.68,-36.61 682.78,-280.23 816.07,-614.07 44.99,-112.73 69.91,-235.73 69.91,-364.48 0,-159.62 -38.08,-310.14 -105.56,-443.46 -0.73,-1.41 -1.43,-2.87 -2.15,-4.04 -22.73,-40.22 -47.14,-80.19 -72.5,-119.69 -0.49,-0.69 -0.97,-1.41 -1.47,-2.14 -130.4,-204.37 -252.78,-358.45 -303.79,-652.01 -115.74,-665.82 183.18,-1128.73 610.13,-1469.05 102.65,-81.85 312.08,-201.25 513.09,-263.48 1.45,0 2.63,0 5.26,-1.18 270.93,-85.45 701.71,-132.76 950.31,-135.94 207.53,-2.63 726.08,-14.86 726.08,-14.86 81.61,2.67 164.43,1.47 248.66,0l922.32 0 635.37 0c654.05,0 1314.33,-431.47 1619.7,-1058.95l637.99 -1236.77 -5282.61 0z"></path>
  <path fill="#AF0608" d="M8819.49 10164.81c-14.61,-1.46 -29.42,-2.15 -44.51,-2.15l-1735.98 0c0,0 -1088.89,-63.89 -1435.65,649 -291,597.82 48.55,947.51 165.36,1052.59 90.95,81.85 253.62,176.82 472.73,186.13 492.51,20.9 1846.95,4.05 1846.95,4.05 38.53,0 76.56,-3.12 114.15,-9.1 246.24,-31.08 453,-188.07 554.24,-404.42l400.15 -753.39c14.37,-24.64 26.55,-49.76 36.62,-75.62 1.42,-3.35 2.87,-6.68 4.05,-10.03 19.87,-53.85 30.63,-109.37 32.57,-164.19l0 -0.25c0,-3.56 0.21,-7.16 0.21,-10.76 -1.43,-237.87 -180.19,-433.62 -410.89,-461.86z"></path>
 </g>
</svg>